<svg version="1" xmlns="http://www.w3.org/2000/svg" width="217.333" height="217.333" viewBox="0 0 163.000000 163.000000"><path d="M77.5 81.5c0 28.6.1 40.2.2 25.7.2-14.5.2-37.9 0-52-.1-14.1-.2-2.3-.2 26.3zM36 72.5c0 29.2-.4 31.5-5.8 35.4-3.9 2.7-10.5 2.8-14.9.1-2.5-1.5-3.6-3.2-4.5-6.5L9.6 97H-.2l.7 4.2c1.8 11.3 11.2 17.6 24.5 16.6 7.3-.5 12.8-3.4 16.5-8.7l3-4.3.3-29.4.3-29.4H36v26.5zM111 81.4v35.7l13.8-.2c11.5-.1 14.5-.4 18.9-2.2 13.6-5.7 19.1-15.3 19.1-33.3 0-15.9-5-25.9-15.9-31.9-5.2-2.8-6-3-20.6-3.3l-15.3-.4v35.6zm30.7-25.1c7.4 3.9 11.3 12.7 11.1 25.5-.1 12.4-2.9 19-10 23.7-3.5 2.3-5.5 2.9-13 3.3l-8.8.5V53.7l8.8.5c5.2.3 10 1.2 11.9 2.1z"/></svg>