<svg version="1" xmlns="http://www.w3.org/2000/svg" width="425.333" height="425.333" viewBox="0 0 319.000000 319.000000"><path d="M113.3 72.2c-.4.7-.8 27.8-.8 60.3 0 58.3 0 59.1-2.3 67-4.6 16.3-12.4 27.2-22.5 31.5-7 3.1-17.8 3.8-24.3 1.6-10.9-3.6-20.3-14.7-21.9-25.5-.9-6.7-1.4-8-3.5-9.1-1.3-.7-2.7-.6-4.4.2-2.3 1-2.6 1.7-2.6 6.8 0 23.8 22.8 42 48.7 38.8 19.7-2.3 32-13.7 38.9-35.8 4.1-13 4.7-21.9 4.5-69-.1-47.9-.7-64.7-2.3-66.8-.6-.6-2.3-1.2-3.9-1.2-1.5 0-3.1.6-3.6 1.2zM155.7 72.2c-1.7 1.2-1.8 6.3-2.4 84.8-.6 79.5-.5 83.6 1.2 85 2.9 2.4 56.9 2.1 68.5-.3 37.8-8 60-26.5 69.1-57.7 3-10.4 3.8-35.1 1.5-46.3-7.3-35.1-30.4-56.1-70.6-64.3-11.5-2.3-64.5-3.3-67.3-1.2zm64.9 11.7c33.9 6.7 53.6 22.9 61.6 50.6 3 10.6 3.2 34.3.4 44.5-4.5 16.6-13.7 29.6-26.9 38.4-19 12.5-39.1 16.6-77.5 15.8l-15.3-.3.7-75.2c.5-53.1 1-75.4 1.8-75.9.6-.4 11-.5 23.1-.3 16.7.3 24.4.9 32.1 2.4z"/></svg>